<?xml version="1.0" encoding="utf-8"?>
<!-- Generator: Adobe Illustrator 27.0.1, SVG Export Plug-In . SVG Version: 6.00 Build 0)  -->
<svg version="1.1" id="Layer_1" xmlns="http://www.w3.org/2000/svg" xmlns:xlink="http://www.w3.org/1999/xlink" x="0px" y="0px"
	 viewBox="0 0 576 576" style="enable-background:new 0 0 576 576;" xml:space="preserve">
<path d="M538.2653809,37.7501221C512.2327881,11.7090454,479.7780151,0,424.0618286,0H151.9376831
	c-55.71521,0-88.1708984,11.7090454-114.2034912,37.7501221C11.7021484,63.7911987,0,96.2639771,0,152v272
	c0,55.7384644,11.7021484,88.2073975,37.7341919,114.2498169C63.7667847,564.2932129,96.2224731,576,151.9376831,576
	c55.7161865,0,216.4084473,0,272.1241455,0c55.7161865,0,88.1709595-11.7067871,114.2035522-37.7501831
	C564.2974243,512.2073975,576,479.7384644,576,424V152C576,96.2639771,564.2974243,63.7911987,538.2653809,37.7501221z"/>
</svg>
